<svg id="Слой_1" data-name="Слой 1" xmlns="http://www.w3.org/2000/svg" viewBox="0 0 273.86 220.76"><defs><style>.cls-1{fill:#fff;}.cls-2,.cls-3{fill:none;stroke:#fff;stroke-miterlimit:10;}.cls-2{stroke-width:2px;}.cls-3{stroke-width:6px;}</style></defs><polygon points="0 6.8 140.09 220.76 266.15 6.8 256.25 7.67 137.43 146.22 9.75 7.67 0 6.8"/><path class="cls-1" d="M115,153.62l10.72,12.19,17,19.35,3.94,4.48a3,3,0,0,0,3.63.47,3.14,3.14,0,0,0,1.38-3.39l-3.15-18-5-28.59-1.14-6.53c-.31-1.76-2.94-2.91-4.41-1.79l-19.6,15-2.75,2.1a3.1,3.1,0,0,0-1.07,4.1c.74,1.27,2.8,2.07,4.1,1.08l19.6-15L141,137l-4.41-1.79,3.15,17.95,5,28.59,1.14,6.53,5-2.92L140.2,173.2l-17-19.34-3.94-4.48a3,3,0,0,0-4.25,4.24Z" transform="translate(-111.73 -121.96)"/><path class="cls-1" d="M138.55,196.2l4,.51a13.48,13.48,0,0,0,4.28.33c1.59-.33,3.16-.85,4.72-1.27l21.11-5.69,5.83-1.57-3.79-2.89-.95,16-1.5,25.58-.35,5.84a3,3,0,0,0,6,0l.94-16,1.51-25.58.35-5.84a3,3,0,0,0-3.8-2.89l-15,4-10.65,2.87c-1.93.52-4,.9-5.87,1.59-.55.19,1.19.07.3-.11s-1.62-.21-2.42-.31l-4.69-.6c-1.61-.2-3,1.53-3,3a3.08,3.08,0,0,0,3,3Z" transform="translate(-111.73 -121.96)"/><path class="cls-1" d="M247.41,265.08l6.94,23.75,11,37.79,2.52,8.59a3.07,3.07,0,0,0,2.89,2.21,3.12,3.12,0,0,0,2.89-2.21l8.81-22.08,14-35.22,3.23-8.09c.79-2-1.18-3.62-2.9-3.8l-15.7-1.6-25.06-2.55-5.8-.59a3,3,0,0,0-3,3,3.06,3.06,0,0,0,3,3l15.7,1.6,25.06,2.55,5.8.59-2.89-3.8-8.81,22.09-14,35.22-3.22,8.09h5.78l-6.94-23.75-11-37.79-2.51-8.59C252.11,259.79,246.32,261.36,247.41,265.08Z" transform="translate(-111.73 -121.96)"/><path class="cls-1" d="M233.54,231l-20.22,1-31.95,1.52-7.43.36,2.12,5.12,24.51-28.27,3.43-4h-4.24l10.7,9.93,17,15.77,4,3.68c2.82,2.62,7.08-1.61,4.24-4.25L225,221.9l-17-15.77-4-3.68a3,3,0,0,0-4.24,0l-24.52,28.28-3.42,4c-1.59,1.83-.65,5.25,2.12,5.12l20.21-1,32-1.52,7.43-.35a3.07,3.07,0,0,0,3-3A3,3,0,0,0,233.54,231Z" transform="translate(-111.73 -121.96)"/><path class="cls-1" d="M290,219.06l15.32,23,2.19,3.28,2.59-4.51-15.47,1.47L270,244.63l-5.69.54,2.12,5.12,24.83-26.86,3.49-3.77a3,3,0,0,0-4.25-4.24l-24.83,26.86-3.48,3.77c-1.61,1.74-.63,5.38,2.12,5.12l15.46-1.47,24.67-2.34,5.69-.54c2.09-.2,4-2.46,2.59-4.52l-15.32-23L295.18,216a3.08,3.08,0,0,0-4.11-1.08A3,3,0,0,0,290,219.06Z" transform="translate(-111.73 -121.96)"/><path class="cls-1" d="M295,218h45.63c3.86,0,3.87-6,0-6H295l2.12,5.12L309.17,203l19.23-22.57,4.44-5.22-4.71-.61,11.13,17.64,1.57,2.5a3,3,0,0,0,5.18,0l14.67-24.88,2.1-3.56a3,3,0,0,0-1.8-4.4l-26.09-7.47-3.71-1.06.72,5.48,25.26-16.58,3.61-2.38-4.11-1.07L363.18,154c1,2.23,4.07,1.66,5.18,0l7.13-10.63,4.84-7.23a23.06,23.06,0,0,0,2.31-3.72l2.79-6.62c.63-1.49-.68-3.3-2.1-3.69a3.08,3.08,0,0,0-3.69,2.1c-.88,2.09-1.77,4.19-2.65,6.29-.32.76.13-.33.13-.33a2.18,2.18,0,0,0-.31.46l-1.37,2-9.5,14.18-2.76,4.11h5.18l-6.51-15.16a3,3,0,0,0-4.11-1.08l-25.26,16.59-3.61,2.37a3,3,0,0,0,.72,5.48l26.09,7.47,3.71,1.06-1.79-4.41-14.67,24.88-2.1,3.56H346l-11.12-17.63-1.58-2.5c-.95-1.52-3.41-2.14-4.71-.61l-12.05,14.14-19.23,22.57-4.44,5.22c-1.63,1.91-.63,5.12,2.12,5.12h45.63c3.86,0,3.87-6,0-6H295c-3.86,0-3.87,6,0,6Z" transform="translate(-111.73 -121.96)"/><path class="cls-2" d="M279.47,343.14" transform="translate(-111.73 -121.96)"/><polyline class="cls-3" points="110.64 112.95 75.25 149.91 139.51 133.8 119.95 201.09 84.56 154.65"/></svg>